<svg xmlns="http://www.w3.org/2000/svg" width="22" height="22" viewBox="0 0 22 22">
    <g fill="none">
        <path fill="#FFF" d="M.142 10.563l.03-.038 8.144-8.081c.034-.033.07-.062.109-.088.093-.058.198-.095.307-.107.048-.004.047-.004.094-.004.11.006.217.036.313.09.265.15.401.467.328.762-.027.11-.151.29-.151.29l-7.638 7.58 7.608 7.614s.134.171.17.278c.067.22.02.46-.125.64-.146.179-.371.274-.6.252-.144-.014-.382-.165-.382-.165L.2 11.466l-.027-.031c-.097-.106-.156-.24-.17-.382-.015-.138.012-.278.08-.4.016-.031.036-.062.058-.09z"/>
    </g>
</svg>
