<svg xmlns="http://www.w3.org/2000/svg" xmlns:xlink="http://www.w3.org/1999/xlink" width="160" height="160" viewBox="0 0 160 160">
    <defs>
        <path id="8sifcr3sza" d="M0 0L160 0 160 158.94 0 158.94z"/>
        <path id="3py5wgz81c" d="M0.026 0L156.795 0 156.795 158.94 0.026 158.94z"/>
    </defs>
    <g fill="none" fill-rule="evenodd">
        <g transform="translate(0 .53)">
            <mask id="mvbht3gpfb" fill="#fff">
                <use xlink:href="#8sifcr3sza"/>
            </mask>
            <path stroke="#000" stroke-opacity=".012" stroke-width="0" d="M0 0L160 0 160 158.94 0 158.94z" mask="url(#mvbht3gpfb)"/>
        </g>
        <g transform="translate(2.12 .53)">
            <mask id="jmii66k3kd" fill="#fff">
                <use xlink:href="#3py5wgz81c"/>
            </mask>
            <path fill="#DCEDFF" d="M154.91 88.743l-3.01-4.092c-2.486-3.378-2.519-7.958-.098-11.401l2.945-4.125c3.402-4.808 1.832-11.466-3.403-14.26l-4.482-2.403c-3.73-1.982-5.758-6.107-5.071-10.232l.85-5.002c.982-5.782-3.37-11.141-9.291-11.369l-5.104-.227c-4.22-.162-7.853-3.02-9.03-7.048l-1.407-4.873c-1.636-5.651-7.885-8.575-13.349-6.236l-4.679 2.014c-3.893 1.656-8.375.682-11.222-2.469l-3.402-3.768c-3.959-4.385-10.862-4.32-14.756.098l-3.337 3.833c-2.78 3.15-7.263 4.222-11.157 2.63l-4.71-1.916c-5.465-2.241-11.681.78-13.251 6.464l-1.342 4.872c-1.08 4.093-4.646 6.984-8.866 7.211l-5.104.292c-5.922.325-10.175 5.75-9.096 11.499l.916 4.97c.753 4.125-1.21 8.282-4.907 10.296l-4.45 2.469c-5.17 2.858-6.674 9.55-3.173 14.292l3.01 4.092c2.486 3.378 2.519 7.958.098 11.401L2.087 89.88c-3.402 4.808-1.832 11.466 3.403 14.26l4.482 2.403c3.73 1.982 5.758 6.107 5.071 10.232l-.883 4.97c-.982 5.781 3.37 11.14 9.292 11.368l5.104.227c4.22.163 7.852 3.021 9.03 7.049l1.407 4.872c1.635 5.652 7.884 8.575 13.348 6.237l4.679-2.014c3.893-1.657 8.375-.682 11.222 2.436l3.402 3.768c3.96 4.385 10.863 4.32 14.756-.098l3.337-3.833c2.781-3.15 7.263-4.222 11.157-2.63l4.711 1.916c5.464 2.241 11.68-.78 13.25-6.464l1.342-4.872c1.113-4.028 4.711-6.919 8.932-7.179l5.104-.292c5.922-.325 10.175-5.75 9.095-11.498l-.916-4.97c-.752-4.125 1.21-8.283 4.908-10.297l4.45-2.468c5.136-2.794 6.608-9.517 3.14-14.26zm-76.493 42.064c-28.53 0-51.66-22.964-51.66-51.288 0-28.324 23.13-51.288 51.66-51.288 28.53 0 51.66 22.964 51.66 51.288 0 28.324-23.13 51.288-51.66 51.288z" mask="url(#jmii66k3kd)"/>
            <path fill="#DCEDFF" d="M70.467 81.14l-5.51-5.446c-3.268-3.243-8.62-3.243-11.926-.038-3.307 3.205-3.307 8.456-.04 11.7l5.51 5.445 6.14 6.024c3.188 3.166 8.384 3.166 11.611.038l6.14-5.985 21.411-20.89c3.307-3.206 3.307-8.457.04-11.701-3.267-3.244-8.62-3.244-11.926-.039L70.467 81.14z" mask="url(#jmii66k3kd)"/>
        </g>
    </g>
</svg>
