<svg xmlns="http://www.w3.org/2000/svg" width="28" height="28" viewBox="0 0 28 28">
    <g fill="none" fill-rule="evenodd">
        <path stroke="#000" stroke-opacity=".012" stroke-width="0" d="M0 0L28 0 28 28 0 28z"/>
        <path fill="#FFF" fill-rule="nonzero" d="M14 8.91c1.4 0 2.545-1.146 2.545-2.546S15.4 3.818 14 3.818s-2.545 1.146-2.545 2.546S12.6 8.909 14 8.909zm0 2.545c-1.4 0-2.545 1.145-2.545 2.545S12.6 16.545 14 16.545 16.545 15.4 16.545 14 15.4 11.455 14 11.455zm0 7.636c-1.4 0-2.545 1.145-2.545 2.545S12.6 24.182 14 24.182s2.545-1.146 2.545-2.546S15.4 19.091 14 19.091z"/>
    </g>
</svg>
