<svg xmlns="http://www.w3.org/2000/svg" width="26" height="26" viewBox="0 0 26 26">
    <g fill="none">
        <path fill="#DDAE53" d="M17.262 12.06h-3.308V8.745c0-.522-.424-.945-.945-.945-.523 0-.946.421-.946.945v3.313H8.755c-.522 0-.946.424-.946.946s.422.946.946.946h3.308v3.313c0 .52.423.947.946.947.521 0 .945-.423.945-.947v-3.31h3.308c.52 0 .946-.423.946-.947-.001-.524-.423-.948-.946-.948zM13 1.181C6.485 1.182 1.182 6.482 1.182 13c0 6.517 5.303 11.818 11.818 11.818 6.517 0 11.818-5.3 11.818-11.818 0-6.517-5.3-11.818-11.818-11.818zm0 22.158C7.297 23.34 2.66 18.702 2.66 13 2.66 7.298 7.297 2.66 13 2.66c5.702 0 10.34 4.637 10.34 10.34.001 5.7-4.638 10.34-10.34 10.34z"/>
    </g>
</svg>
