<svg xmlns="http://www.w3.org/2000/svg" xmlns:xlink="http://www.w3.org/1999/xlink" width="22" height="22" viewBox="0 0 22 22">
    <defs>
        <path id="prefix__a" d="M0 0L22 0 22 22 0 22z"/>
    </defs>
    <g fill="none" fill-rule="evenodd">
        <path stroke="#000" stroke-opacity=".012" stroke-width="0" d="M0 0L22 0 22 22 0 22z"/>
        <mask id="prefix__b" fill="#fff">
            <use xlink:href="#prefix__a"/>
        </mask>
        <path fill="#CDCDCD" d="M15.724 15.721c.361-.361.947-.361 1.308 0l4.7 4.7c.361.361.361.947 0 1.308-.361.361-.947.361-1.308 0l-4.7-4.7c-.36-.361-.36-.947 0-1.308zm-6.938.018c3.84 0 6.953-3.113 6.953-6.953 0-3.84-3.113-6.953-6.953-6.953-3.84 0-6.953 3.113-6.953 6.953 0 3.84 3.113 6.953 6.953 6.953zm0 1.833C3.934 17.572 0 13.64 0 8.786 0 3.934 3.934 0 8.786 0c4.853 0 8.786 3.934 8.786 8.786 0 4.853-3.933 8.786-8.786 8.786z" mask="url(#prefix__b)"/>
    </g>
</svg>
