<svg xmlns="http://www.w3.org/2000/svg" xmlns:xlink="http://www.w3.org/1999/xlink" width="36" height="36" viewBox="0 0 36 36">
    <defs>
        <path id="prefix__a" d="M3.989 4.091L31.468 4.091 31.468 31.909 3.989 31.909z"/>
    </defs>
    <g fill="none" fill-rule="evenodd">
        <mask id="prefix__b" fill="#fff">
            <use xlink:href="#prefix__a"/>
        </mask>
        <path fill="#FFF" d="M30.061 15.08l-1.929-.331c-.2-.657-.459-1.29-.775-1.895l1.137-1.61c.482-.685.407-1.62-.184-2.214L26.6 7.3c-.322-.326-.747-.506-1.2-.506-.356 0-.695.11-.982.32l-1.595 1.15c-.62-.33-1.27-.604-1.94-.807l-.322-1.93c-.138-.83-.844-1.435-1.676-1.435h-2.417c-.832 0-1.538.604-1.676 1.435l-.333 1.976c-.643.204-1.269.47-1.866.796l-1.578-1.15c-.287-.21-.632-.32-.988-.32-.453 0-.884.18-1.2.506L7.112 9.065c-.585.593-.666 1.529-.183 2.214l1.148 1.633c-.316.61-.569 1.244-.764 1.9l-1.906.326c-.82.14-1.417.854-1.417 1.697v2.446c0 .843.597 1.558 1.417 1.697l1.952.337c.201.651.465 1.285.787 1.889l-1.131 1.592c-.482.686-.408 1.621.183 2.214l1.711 1.732c.322.325.746.505 1.2.505.356 0 .694-.11.981-.32l1.613-1.161c.58.308 1.189.557 1.814.755l.322 1.953c.138.83.844 1.435 1.676 1.435h2.422c.833 0 1.539-.604 1.676-1.435l.328-1.953c.648-.203 1.274-.465 1.871-.784l1.59 1.15c.287.21.632.32.987.32.454 0 .879-.18 1.2-.506l1.71-1.732c.586-.592.667-1.528.184-2.214l-1.136-1.615c.316-.61.58-1.244.775-1.894l1.929-.326c.82-.14 1.418-.854 1.418-1.697v-2.446c.01-.843-.586-1.558-1.407-1.697zm-.132 4.143c0 .076-.052.14-.126.151l-2.411.407c-.304.052-.546.279-.62.575-.218.855-.551 1.674-.999 2.435-.155.268-.144.599.034.855l1.418 2.022c.04.058.035.145-.017.197l-1.71 1.732c-.04.04-.08.047-.11.047-.034 0-.063-.012-.086-.03L23.31 26.18c-.246-.18-.58-.192-.843-.035-.752.454-1.562.79-2.406 1.011-.298.076-.522.326-.568.628l-.407 2.44c-.012.076-.075.129-.15.129H16.52c-.075 0-.138-.053-.15-.128l-.401-2.44c-.052-.309-.276-.553-.569-.629-.82-.215-1.613-.546-2.353-.976-.12-.07-.259-.104-.39-.104-.156 0-.316.046-.448.145l-2.01 1.447c-.028.017-.057.029-.085.029-.023 0-.07-.006-.11-.047l-1.71-1.731c-.052-.053-.058-.134-.017-.198l1.412-2.005c.178-.255.19-.592.034-.86-.448-.755-.792-1.575-1.01-2.429-.08-.296-.322-.523-.62-.575l-2.428-.419c-.075-.011-.126-.075-.126-.15v-2.447c0-.076.051-.14.126-.151l2.393-.407c.305-.052.552-.279.626-.581.213-.854.54-1.68.982-2.44.155-.268.138-.6-.04-.85l-1.43-2.033c-.04-.058-.034-.145.017-.198l1.711-1.731c.04-.041.08-.047.11-.047.034 0 .062.012.085.03l1.98 1.429c.253.18.586.191.85.035.746-.454 1.556-.802 2.4-1.023.292-.082.516-.326.568-.628l.413-2.458c.012-.076.075-.128.15-.128h2.416c.075 0 .138.052.15.128l.401 2.423c.052.308.276.558.574.634.867.22 1.694.563 2.463 1.022.264.157.591.146.844-.034l1.98-1.442c.029-.017.057-.029.086-.029.023 0 .069.006.11.047l1.71 1.732c.051.052.057.133.017.197l-1.418 2.017c-.178.25-.19.587-.034.854.447.761.78 1.58.999 2.435.074.302.321.529.62.575l2.41.413c.075.011.127.075.127.15v2.447h-.006z" mask="url(#prefix__b)"/>
        <path fill="#FFF" d="M17.73 11.994c-3.271 0-5.929 2.69-5.929 6.003 0 3.312 2.658 6.003 5.93 6.003s5.93-2.69 5.93-6.003c0-3.312-2.658-6.003-5.93-6.003zm0 10.437c-2.416 0-4.379-1.987-4.379-4.434 0-2.446 1.963-4.434 4.38-4.434s4.38 1.988 4.38 4.434c0 2.447-1.963 4.434-4.38 4.434z" mask="url(#prefix__b)"/>
    </g>
</svg>
