<svg xmlns="http://www.w3.org/2000/svg" xmlns:xlink="http://www.w3.org/1999/xlink" width="16" height="18" viewBox="0 0 16 18">
    <defs>
        <path id="prefix__a" d="M0 0L15.75 0 15.75 17.992 0 17.992z"/>
        <path id="prefix__c" d="M0.003 0L15.747 0 15.747 17.992 0.003 17.992z"/>
    </defs>
    <g fill="none" fill-rule="evenodd">
        <mask id="prefix__b" fill="#fff">
            <use xlink:href="#prefix__a"/>
        </mask>
        <path stroke="#000" stroke-opacity=".012" stroke-width="0" d="M0 0L15.75 0 15.75 17.992 0 17.992z" mask="url(#prefix__b)"/>
        <g>
            <mask id="prefix__d" fill="#fff">
                <use xlink:href="#prefix__c"/>
            </mask>
            <path fill="#999" d="M11.024 10.683c-1.009 0-1.494.562-3.149.562s-2.137-.562-3.149-.562c-2.607 0-4.723 2.116-4.723 4.723v.9c0 .93.756 1.686 1.687 1.686h12.37c.931 0 1.687-.755 1.687-1.686v-.9c0-2.607-2.116-4.723-4.723-4.723zm3.036 5.623H1.69v-.9c0-1.673 1.364-3.036 3.036-3.036.513 0 1.346.562 3.149.562 1.817 0 2.632-.562 3.149-.562 1.672 0 3.036 1.363 3.036 3.036v.9zM7.875 10.12c2.794 0 5.06-2.267 5.06-5.06C12.935 2.266 10.67 0 7.875 0c-2.794 0-5.06 2.267-5.06 5.06 0 2.794 2.266 5.06 5.06 5.06zm0-8.434c1.859 0 3.374 1.514 3.374 3.373 0 1.86-1.515 3.374-3.374 3.374-1.859 0-3.374-1.515-3.374-3.374 0-1.859 1.515-3.373 3.374-3.373z" mask="url(#prefix__d)"/>
        </g>
    </g>
</svg>
